HIERARCHY
ROOT Hips
{
    OFFSET   0.000000   0.000000   0.000000
    CHANNELS 6 Xposition Yposition Zposition Zrotation Xrotation Yrotation
    JOINT Chest
    {
        OFFSET   0.000000   8.007230   0.000000
        CHANNELS 3 Zrotation Xrotation Yrotation
        JOINT Chest2
        {
            OFFSET   0.000000  22.077100   0.000000
            CHANNELS 3 Zrotation Xrotation Yrotation
            JOINT Neck
            {
                OFFSET   0.000000  23.254700   0.000000
                CHANNELS 3 Zrotation Xrotation Yrotation
                JOINT Head
                {
                    OFFSET   0.000010  14.370000   1.956610
                    CHANNELS 3 Zrotation Xrotation Yrotation
                    End Site
                    {
                        OFFSET   0.000000  19.566000   0.000000
                    }
                }
            }
            JOINT LeftCollar
            {
                OFFSET   3.911900  19.017000  -0.467063
                CHANNELS 3 Zrotation Xrotation Yrotation
                JOINT LeftShoulder
                {
                    OFFSET  10.383700   0.000000   0.000000
                    CHANNELS 3 Zrotation Xrotation Yrotation
                    JOINT LeftElbow
                    {
                        OFFSET  26.662100   0.001671   0.000522
                        CHANNELS 3 Zrotation Xrotation Yrotation
                        JOINT LeftWrist
                        {
                            OFFSET  28.869000   0.000037  -0.000114
                            CHANNELS 3 Zrotation Xrotation Yrotation
                            JOINT LeftFinger0
                            {
                                OFFSET   2.044650  -2.323450   3.252850
                                CHANNELS 3 Zrotation Xrotation Yrotation
                                JOINT LeftFinger01
                                {
                                    OFFSET   3.088140   0.000000   0.000000
                                    CHANNELS 3 Zrotation Xrotation Yrotation
                                    JOINT LeftFinger02
                                    {
                                        OFFSET   2.639460   0.000000   0.000000
                                        CHANNELS 3 Zrotation Xrotation Yrotation
                                        End Site
                                        {
                                            OFFSET   2.582190   0.000000   0.000000
                                        }
                                    }
                                }
                            }
                            JOINT LeftFinger1
                            {
                                OFFSET   8.364480   0.000000   3.252850
                                CHANNELS 3 Zrotation Xrotation Yrotation
                                JOINT LeftFinger11
                                {
                                    OFFSET   4.646930   0.000000   0.000000
                                    CHANNELS 3 Zrotation Xrotation Yrotation
                                    JOINT LeftFinger12
                                    {
                                        OFFSET   2.323470   0.000000   0.000000
                                        CHANNELS 3 Zrotation Xrotation Yrotation
                                        End Site
                                        {
                                            OFFSET   2.273050   0.000000   0.000000
                                        }
                                    }
                                }
                            }
                            JOINT LeftFinger2
                            {
                                OFFSET   8.364490   0.000016   1.078090
                                CHANNELS 3 Zrotation Xrotation Yrotation
                                JOINT LeftFinger21
                                {
                                    OFFSET   5.111620   0.000000   0.000000
                                    CHANNELS 3 Zrotation Xrotation Yrotation
                                    JOINT LeftFinger22
                                    {
                                        OFFSET   2.788150   0.000013   0.000000
                                        CHANNELS 3 Zrotation Xrotation Yrotation
                                        End Site
                                        {
                                            OFFSET   2.727660   0.000000   0.000000
                                        }
                                    }
                                }
                            }
                            JOINT LeftFinger3
                            {
                                OFFSET   7.899780   0.000016  -1.078090
                                CHANNELS 3 Zrotation Xrotation Yrotation
                                JOINT LeftFinger31
                                {
                                    OFFSET   4.646930   0.000000   0.000000
                                    CHANNELS 3 Zrotation Xrotation Yrotation
                                    JOINT LeftFinger32
                                    {
                                        OFFSET   2.323470   0.000000   0.000000
                                        CHANNELS 3 Zrotation Xrotation Yrotation
                                        End Site
                                        {
                                            OFFSET   2.273050   0.000000   0.000000
                                        }
                                    }
                                }
                            }
                            JOINT LeftFinger4
                            {
                                OFFSET   7.435080   0.000000  -3.252850
                                CHANNELS 3 Zrotation Xrotation Yrotation
                                JOINT LeftFinger41
                                {
                                    OFFSET   3.717550   0.000000   0.000000
                                    CHANNELS 3 Zrotation Xrotation Yrotation
                                    JOINT LeftFinger42
                                    {
                                        OFFSET   1.858760   0.000000   0.000000
                                        CHANNELS 3 Zrotation Xrotation Yrotation
                                        End Site
                                        {
                                            OFFSET   1.818440   0.000000   0.000000
                                        }
                                    }
                                }
                            }
                        }
                    }
                }
            }
            JOINT RightCollar
            {
                OFFSET  -3.911900  19.017000  -0.467064
                CHANNELS 3 Zrotation Xrotation Yrotation
                JOINT RightShoulder
                {
                    OFFSET -10.383700   0.000000   0.000000
                    CHANNELS 3 Zrotation Xrotation Yrotation
                    JOINT RightElbow
                    {
                        OFFSET -26.662100   0.001633   0.000260
                        CHANNELS 3 Zrotation Xrotation Yrotation
                        JOINT RightWrist
                        {
                            OFFSET -28.869000  -0.000045  -0.000080
                            CHANNELS 3 Zrotation Xrotation Yrotation
                            JOINT RightFinger0
                            {
                                OFFSET  -2.044660  -2.323490   3.252850
                                CHANNELS 3 Zrotation Xrotation Yrotation
                                JOINT RightFinger01
                                {
                                    OFFSET  -3.088140   0.000000   0.000000
                                    CHANNELS 3 Zrotation Xrotation Yrotation
                                    JOINT RightFinger02
                                    {
                                        OFFSET  -2.639450   0.000000   0.000000
                                        CHANNELS 3 Zrotation Xrotation Yrotation
                                        End Site
                                        {
                                            OFFSET  -2.582190   0.000000   0.000000
                                        }
                                    }
                                }
                            }
                            JOINT RightFinger1
                            {
                                OFFSET  -8.364480   0.000000   3.252850
                                CHANNELS 3 Zrotation Xrotation Yrotation
                                JOINT RightFinger11
                                {
                                    OFFSET  -4.646920   0.000000   0.000000
                                    CHANNELS 3 Zrotation Xrotation Yrotation
                                    JOINT RightFinger12
                                    {
                                        OFFSET  -2.323470   0.000000   0.000000
                                        CHANNELS 3 Zrotation Xrotation Yrotation
                                        End Site
                                        {
                                            OFFSET  -2.273050   0.000000   0.000000
                                        }
                                    }
                                }
                            }
                            JOINT RightFinger2
                            {
                                OFFSET  -8.364480   0.000000   1.078090
                                CHANNELS 3 Zrotation Xrotation Yrotation
                                JOINT RightFinger21
                                {
                                    OFFSET  -5.111610   0.000000   0.000000
                                    CHANNELS 3 Zrotation Xrotation Yrotation
                                    JOINT RightFinger22
                                    {
                                        OFFSET  -2.788160   0.000000   0.000000
                                        CHANNELS 3 Zrotation Xrotation Yrotation
                                        End Site
                                        {
                                            OFFSET  -2.727660   0.000000   0.000000
                                        }
                                    }
                                }
                            }
                            JOINT RightFinger3
                            {
                                OFFSET  -7.899780   0.000000  -1.078090
                                CHANNELS 3 Zrotation Xrotation Yrotation
                                JOINT RightFinger31
                                {
                                    OFFSET  -4.646930   0.000000   0.000000
                                    CHANNELS 3 Zrotation Xrotation Yrotation
                                    JOINT RightFinger32
                                    {
                                        OFFSET  -2.323470   0.000000   0.000000
                                        CHANNELS 3 Zrotation Xrotation Yrotation
                                        End Site
                                        {
                                            OFFSET  -2.273050   0.000000   0.000000
                                        }
                                    }
                                }
                            }
                            JOINT RightFinger4
                            {
                                OFFSET  -7.435090   0.000000  -3.252850
                                CHANNELS 3 Zrotation Xrotation Yrotation
                                JOINT RightFinger41
                                {
                                    OFFSET  -3.717550   0.000000   0.000000
                                    CHANNELS 3 Zrotation Xrotation Yrotation
                                    JOINT RightFinger42
                                    {
                                        OFFSET  -1.858760   0.000000   0.000000
                                        CHANNELS 3 Zrotation Xrotation Yrotation
                                        End Site
                                        {
                                            OFFSET  -1.818440   0.000000   0.000000
                                        }
                                    }
                                }
                            }
                        }
                    }
                }
            }
        }
    }
    JOINT LeftHip
    {
        OFFSET   9.782990   0.000000   0.000000
        CHANNELS 3 Zrotation Xrotation Yrotation
        JOINT LeftKnee
        {
            OFFSET  -0.000063 -41.789100   0.001657
            CHANNELS 3 Zrotation Xrotation Yrotation
            JOINT LeftAnkle
            {
                OFFSET   0.000078 -41.133200  -0.000113
                CHANNELS 3 Zrotation Xrotation Yrotation
                JOINT LeftToe
                {
                    OFFSET   0.000000  -6.358970  14.674500
                    CHANNELS 3 Zrotation Xrotation Yrotation
                    End Site
                    {
                        OFFSET   0.000000   0.000000   3.913200
                    }
                }
            }
        }
    }
    JOINT RightHip
    {
        OFFSET  -9.782990   0.000000   0.000000
        CHANNELS 3 Zrotation Xrotation Yrotation
        JOINT RightKnee
        {
            OFFSET   0.000053 -41.789200   0.000277
            CHANNELS 3 Zrotation Xrotation Yrotation
            JOINT RightAnkle
            {
                OFFSET   0.000030 -41.133200  -0.000150
                CHANNELS 3 Zrotation Xrotation Yrotation
                JOINT RightToe
                {
                    OFFSET   0.000000  -6.358960  14.674500
                    CHANNELS 3 Zrotation Xrotation Yrotation
                    End Site
                    {
                        OFFSET   0.000000   0.000000   3.913200
                    }
                }
            }
        }
    }
}
MOTION
Frames: 4
Frame Time:   0.016667
  1.404780  89.505900   2.613450  -3.029320 -15.256800   0.136934   1.450260   9.288860  -0.079485   2.973720  18.572700  -0.409146  -3.138120   3.773660   0.206702  -5.217630   7.583580  19.644100  -2.960140  -3.370210   1.169770 -51.225800   5.567130 -49.559600  26.935000 -11.803000 -68.732900  27.198300  -1.594550   0.249236  31.358600  41.102300 -71.985200 -49.820900  -0.008916  -0.010447 -26.169800   0.025833  -0.076332 -88.996400   4.998090  -0.085440 -107.454000   0.041674   0.009851 -80.276900  -0.001424   0.024326 -76.192400  -0.128824  -0.156127 -76.191100   0.134228  -0.098812 -57.143400   0.118918   0.040530 -71.161500  -5.238610   1.603680 -71.240700   0.114878  -0.124381 -53.430600   0.127137   0.009641 -77.949700  -9.832010   1.960820 -111.890000   0.077151  -0.004708 -78.409000   0.027738   0.135181   7.901430  -0.842216   9.320420  69.594700  13.017300  -0.115987  -2.900100  -8.180120  17.056700 -16.444800  -4.383040   3.101240 -35.465900  27.229100  57.370400  33.920700   0.001991  -0.001257  11.960400   0.001609  -0.001436  36.570000   8.054710  10.695700  30.539000   0.002874   0.002942  21.377300   0.002011   0.002361  30.087300   2.844630   4.895730  45.313800   0.003148   0.009552  30.178900   0.002104   0.006818  29.196600   0.674107   1.206100  43.805900  -0.000645  -0.000980  29.174700  -0.000425  -0.001215  41.526500  -1.533440  -1.730870  62.324500  -0.002132   0.005659  41.508100  -0.001352   0.003804   4.397330  17.810100   4.638800   1.072720   0.078402   3.951840  -3.126890  -2.983680  -1.664800  -0.000000   0.000000   0.000000   2.369170  18.329500   0.467751  -0.187912   1.019830 -11.216100   0.175125  -4.743180  -2.427670  -0.000000   0.000000   0.000000
  1.411530  89.509400   2.652900  -3.109150 -15.101900  -0.180556   1.493010   9.207520  -0.143513   3.068480  18.408100  -0.544023  -3.036320   3.579460   0.189591  -5.049470   7.197500  19.780600  -3.217170  -3.267100   1.164020 -53.151300   5.643850 -46.237300  27.053700  -9.307220 -67.500200  28.319000  -3.516290   2.223400  31.942200  40.155400 -72.130700 -47.250500  -0.003590  -0.004380 -23.212500   0.021021  -0.059573 -88.996400   4.998100  -0.085561 -106.687000   0.098026   0.014708 -79.855800   0.003822   0.070631 -72.607600  -0.576089  -0.001216 -72.629800   0.123187  -0.137631 -54.469700   0.139688   0.008397 -67.456700  -5.563020   2.142050 -67.651500   0.086853  -0.161576 -50.712800   0.128825  -0.029062 -74.973100  -9.726680   2.463530 -111.004000   0.156940  -0.029430 -75.483200   0.058842   0.127490   7.987500  -0.821956   9.264800  69.515600  12.849800  -0.027011  -2.919130  -8.088560  16.894500 -16.450900  -4.356860   3.078210 -35.458000  27.239000  57.340600  33.951500   0.002089  -0.001341  11.975800   0.001673  -0.001497  36.569500   8.015020  10.644800  30.532600   0.002751   0.002959  21.372800   0.001929   0.002369  30.081500   2.810650   4.838750  45.300800   0.003019   0.009590  30.170300   0.002020   0.006841  29.189500   0.645914   1.156050  43.794300  -0.000687  -0.000958  29.167000  -0.000452  -0.001194  41.508500  -1.527860  -1.725540  62.297200  -0.002167   0.005623  41.489900  -0.001376   0.003788   4.361450  17.717600   4.678880   1.084100   0.114190   4.085570  -3.107330  -3.070500  -1.512060  -0.000000   0.000000   0.000000   2.324520  18.170000   0.545019  -0.172656   1.009800 -11.061400   0.180706  -4.718650  -2.332220   0.000000   0.000000  -0.000000
  1.418280  89.514700   2.698700  -3.191180 -14.943600  -0.506794   1.519950   9.125010  -0.194907   3.132650  18.241400  -0.651239  -2.900000   3.391500   0.171465  -4.810570   6.824520  19.875600  -3.511080  -3.115900   1.124460 -55.006800   5.481180 -42.860900  27.107200  -6.761650 -66.384400  28.837600  -5.284830   4.119970  32.863900  39.456300 -71.953300 -45.111500   0.001737   0.001686 -20.573400   0.016273  -0.042669 -88.996400   4.998100  -0.085678 -104.931000   0.153077   0.016414 -78.732500   0.015602   0.115231 -68.922700  -1.196840   0.249056 -68.921700   0.115309  -0.175122 -51.691400   0.155211  -0.021087 -63.761400  -5.919450   2.717910 -63.940300   0.065913  -0.187102 -47.942500   0.130513  -0.059616 -71.920300  -9.591290   2.965430 -108.593000   0.209299  -0.066634 -72.109600   0.092069   0.111933   8.081340  -0.801780   9.168320  69.467700  12.664900   0.072242  -2.918780  -7.991860  16.714700 -16.455700  -4.307680   3.054240 -35.446800  27.230600  57.303200  33.978500   0.002182  -0.001419  11.989300   0.001734  -0.001554  36.565300   7.978390  10.599200  30.523700   0.002628   0.002974  21.366600   0.001845   0.002374  30.072300   2.779860   4.787850  45.283200   0.002888   0.009626  30.158600   0.001936   0.006863  29.180300   0.620739   1.111490  43.779900  -0.000730  -0.000935  29.157400  -0.000480  -0.001173  41.486300  -1.520990  -1.719150  62.263500  -0.002203   0.005585  41.467500  -0.001400   0.003770   4.327530  17.637300   4.716770   1.090850   0.133562   4.223090  -3.084590  -3.152740  -1.352400  -0.000000   0.000000   0.000000   2.281850  18.012100   0.623889  -0.158276   0.995141 -10.900700   0.188141  -4.694710  -2.236250   0.000000   0.000000   0.000000
  1.417260  89.517800   2.747080  -3.274910 -14.785100  -0.843665   1.526550   9.053750  -0.242645   3.155400  18.097500  -0.747892  -2.729530   3.201230   0.152351  -4.524270   6.446710  19.971600  -3.819040  -3.046900   0.999806 -56.544800   5.366510 -39.435800  26.943300  -4.476240 -65.142100  28.705400  -7.180900   5.585680  34.121900  39.425300 -71.852500 -42.950900  -0.001722   0.001296 -18.423300   0.001764  -0.020418 -88.996300   4.998100  -0.085797 -102.481000   0.188760   0.006361 -76.899400   0.033801   0.137023 -65.299000  -1.864200   0.627362 -65.126000   0.091128  -0.201117 -48.876200   0.153489  -0.057062 -60.651200  -6.287820   3.236180 -59.884400   0.042970  -0.156324 -45.154700   0.115532  -0.075136 -68.937200  -9.421110   3.452840 -104.387000   0.202788  -0.107731 -69.143600   0.118735   0.093435   8.204090  -0.816196   9.076430  69.450100  12.460900   0.179484  -2.920630  -7.877860  16.517600 -16.446900  -4.252800   3.028040 -35.420200  27.171200  57.246000  33.991400   0.002263  -0.001462  11.995800   0.001785  -0.001613  36.560200   7.952120  10.567400  30.515800   0.002512   0.002990  21.361100   0.001762   0.002381  30.061900   2.755720   4.748590  45.264900   0.002760   0.009664  30.146400   0.001854   0.006883  29.171000   0.600632   1.076030  43.765600  -0.000775  -0.000911  29.147800  -0.000511  -0.001149  41.468100  -1.515330  -1.713760  62.235900  -0.002236   0.005549  41.449200  -0.001425   0.003757   4.300590  17.595000   4.753230   1.089710   0.087023   4.370010  -3.057770  -3.207730  -1.191090  -0.000000   0.000000   0.000000   2.247270  17.863100   0.707966  -0.150451   0.972439 -10.738800   0.197839  -4.671800  -2.139220   0.000000   0.000000  -0.000000
